<?xml version="1.0" standalone="no"?>
<!DOCTYPE svg PUBLIC "-//W3C//DTD SVG 20010904//EN"
 "http://www.w3.org/TR/2001/REC-SVG-20010904/DTD/svg10.dtd">
<svg version="1.0" xmlns="http://www.w3.org/2000/svg"
 width="561.000000pt" height="471.000000pt" viewBox="0 0 561.000000 471.000000"
 preserveAspectRatio="xMidYMid meet">

<g transform="translate(0.000000,471.000000) scale(0.100000,-0.100000)"
fill="#000000" stroke="none">
<path d="M1190 4100 l0 -69 -77 -3 -78 -3 0 -1690 0 -1690 143 -3 142 -3 0 66
0 65 75 0 75 0 0 60 0 60 75 0 75 0 0 -60 0 -60 65 0 65 0 0 -65 0 -65 90 0
90 0 0 65 0 65 75 0 76 0 -3 58 -3 57 78 3 77 3 0 -61 0 -60 65 0 64 0 3 -62
3 -63 88 -3 87 -3 0 66 0 65 70 0 70 0 0 60 0 60 80 0 80 0 0 -60 0 -60 65 0
65 0 0 -65 0 -65 85 0 85 0 0 65 0 65 65 0 65 0 0 60 0 60 86 0 c52 0 83 -4
79 -10 -3 -5 -3 -32 1 -60 l7 -50 58 0 59 0 0 -65 0 -65 90 0 90 0 0 65 0 64
68 3 67 3 3 58 3 57 74 0 75 0 0 -60 0 -60 65 0 65 0 0 -65 0 -66 100 3 101 3
-1 1363 0 1362 195 0 195 0 0 330 0 330 -60 0 -60 0 0 70 0 70 -1720 0 -1720
0 0 -70z m3140 -145 l0 -65 -65 0 -65 0 0 -1425 0 -1425 -70 0 -70 0 0 70 0
70 -110 0 -110 0 0 -70 0 -70 -65 0 -65 0 0 -70 0 -70 -60 0 -60 0 0 70 0 70
-65 0 -65 0 0 70 0 70 -105 0 -105 0 0 -70 0 -69 -67 -3 -68 -3 0 -65 0 -65
-57 -3 -58 -3 -2 33 c-1 18 -2 49 -2 68 l-1 35 -62 3 -63 3 0 69 0 70 -110 0
-110 0 0 -70 0 -69 -67 -3 -68 -3 -1 -30 c0 -16 -1 -47 -2 -67 l-2 -38 -60 0
-60 0 0 70 0 70 -70 0 -70 0 0 70 0 70 -110 0 -110 0 0 -70 0 -69 -62 -3 -63
-3 0 -65 0 -65 -57 -3 -57 -3 -3 68 -3 68 -67 3 -68 3 0 70 0 70 -107 -3 -108
-3 -1 -65 0 -65 -62 -3 -62 -3 0 -69 0 -70 -60 0 -60 0 0 1560 0 1560 1570 0
1570 0 0 -65z"/>
<path d="M1570 3485 l0 -115 1060 0 1060 0 0 115 0 115 -1060 0 -1060 0 0
-115z"/>
<path d="M1570 2915 l0 -115 875 0 875 0 0 115 0 115 -875 0 -875 0 0 -115z"/>
<path d="M1570 2450 l0 -110 685 0 685 0 0 110 0 110 -685 0 -685 0 0 -110z"/>
<path d="M3786 2403 c-3 -4 -6 -39 -6 -79 l0 -72 -74 -4 c-41 -2 -77 -6 -81
-9 -3 -3 -8 -36 -12 -73 -6 -65 -6 -66 -37 -68 -17 0 -40 -2 -51 -3 -11 -1
-32 -3 -47 -4 -28 -1 -28 -2 -28 -71 l0 -70 -49 0 c-27 0 -63 -3 -80 -6 l-32
-7 2 -66 3 -66 -56 -3 -57 -3 -6 -64 c-8 -71 -10 -72 -82 -66 l-43 3 0 64 0
64 -75 0 -74 0 -3 73 -3 72 -142 3 -143 3 0 -149 c0 -135 2 -149 18 -149 9 1
43 0 75 -1 l57 -2 0 -75 0 -75 70 0 70 0 0 -75 0 -75 65 0 65 0 0 -39 c0 -46
10 -52 85 -46 l50 3 3 41 3 41 65 0 64 0 0 75 0 75 74 0 75 0 7 80 7 80 68 0
68 0 3 73 3 72 77 3 77 3 3 72 3 72 75 0 75 0 3 68 3 67 89 0 90 0 0 75 0 75
-50 0 -50 0 0 84 0 84 -104 0 c-57 1 -106 -2 -110 -5z"/>
</g>
</svg>
