<?xml version="1.0" encoding="UTF-8"?>
<svg xmlns="http://www.w3.org/2000/svg" xmlns:xlink="http://www.w3.org/1999/xlink" width="38px" height="32px" viewBox="0 0 38 32" version="1.1">
<g id="surface1">
<path style=" stroke:none;fill-rule:nonzero;fill:rgb(0%,0%,0%);fill-opacity:1;" d="M 8.0625 4.144531 L 8.0625 4.609375 L 7.542969 4.632812 L 7.011719 4.652344 L 7.011719 27.605469 L 7.980469 27.625 L 8.945312 27.648438 L 8.945312 26.757812 L 9.960938 26.757812 L 9.960938 25.941406 L 10.976562 25.941406 L 10.976562 26.757812 L 11.859375 26.757812 L 11.859375 27.640625 L 13.078125 27.640625 L 13.078125 26.757812 L 14.101562 26.757812 L 14.082031 26.363281 L 14.058594 25.976562 L 14.589844 25.957031 L 15.109375 25.933594 L 15.109375 26.757812 L 15.984375 26.757812 L 16.003906 27.179688 L 16.023438 27.605469 L 16.621094 27.625 L 17.210938 27.648438 L 17.210938 26.757812 L 18.160156 26.757812 L 18.160156 25.941406 L 19.242188 25.941406 L 19.242188 26.757812 L 20.125 26.757812 L 20.125 27.640625 L 21.277344 27.640625 L 21.277344 26.757812 L 22.15625 26.757812 L 22.15625 25.941406 L 22.742188 25.941406 C 23.09375 25.941406 23.304688 25.96875 23.277344 26.011719 C 23.253906 26.042969 23.253906 26.226562 23.28125 26.417969 L 23.328125 26.757812 L 24.121094 26.757812 L 24.121094 27.640625 L 25.34375 27.640625 L 25.34375 26.765625 L 25.804688 26.742188 L 26.257812 26.722656 L 26.277344 26.328125 L 26.296875 25.941406 L 27.308594 25.941406 L 27.308594 26.757812 L 28.1875 26.757812 L 28.1875 27.648438 L 28.867188 27.625 L 29.550781 27.605469 L 29.542969 18.351562 L 29.542969 9.101562 L 32.1875 9.101562 L 32.1875 4.617188 L 31.371094 4.617188 L 31.371094 3.667969 L 8.0625 3.667969 Z M 29.339844 5.128906 L 29.339844 5.570312 L 28.460938 5.570312 L 28.460938 24.921875 L 27.511719 24.921875 L 27.511719 23.972656 L 26.019531 23.972656 L 26.019531 24.921875 L 25.140625 24.921875 L 25.140625 25.875 L 24.324219 25.875 L 24.324219 24.921875 L 23.445312 24.921875 L 23.445312 23.972656 L 22.023438 23.972656 L 22.023438 24.917969 L 21.566406 24.9375 L 21.105469 24.957031 L 21.105469 25.839844 L 20.722656 25.859375 L 20.328125 25.882812 L 20.316406 25.65625 C 20.308594 25.535156 20.300781 25.324219 20.300781 25.195312 L 20.292969 24.957031 L 19.875 24.9375 L 19.445312 24.917969 L 19.445312 23.972656 L 17.957031 23.972656 L 17.957031 24.917969 L 17.503906 24.9375 L 17.042969 24.957031 L 17.035156 25.160156 C 17.035156 25.269531 17.027344 25.480469 17.019531 25.617188 L 17.007812 25.875 L 16.195312 25.875 L 16.195312 24.921875 L 15.246094 24.921875 L 15.246094 23.972656 L 13.753906 23.972656 L 13.753906 24.917969 L 13.335938 24.9375 L 12.910156 24.957031 L 12.910156 25.839844 L 12.523438 25.859375 L 12.136719 25.882812 L 12.117188 25.417969 L 12.09375 24.957031 L 11.640625 24.9375 L 11.179688 24.917969 L 11.179688 23.964844 L 10.457031 23.988281 L 9.722656 24.007812 L 9.71875 24.449219 L 9.71875 24.890625 L 8.875 24.929688 L 8.875 25.875 L 8.0625 25.875 L 8.0625 4.6875 L 29.339844 4.6875 Z M 29.339844 5.128906 "/>
<path style=" stroke:none;fill-rule:nonzero;fill:rgb(0%,0%,0%);fill-opacity:1;" d="M 10.636719 8.320312 L 10.636719 9.101562 L 25.003906 9.101562 L 25.003906 7.539062 L 10.636719 7.539062 Z M 10.636719 8.320312 "/>
<path style=" stroke:none;fill-rule:nonzero;fill:rgb(0%,0%,0%);fill-opacity:1;" d="M 10.636719 12.191406 L 10.636719 12.972656 L 22.496094 12.972656 L 22.496094 11.410156 L 10.636719 11.410156 Z M 10.636719 12.191406 "/>
<path style=" stroke:none;fill-rule:nonzero;fill:rgb(0%,0%,0%);fill-opacity:1;" d="M 10.636719 15.347656 L 10.636719 16.09375 L 19.921875 16.09375 L 19.921875 14.601562 L 10.636719 14.601562 Z M 10.636719 15.347656 "/>
<path style=" stroke:none;fill-rule:nonzero;fill:rgb(0%,0%,0%);fill-opacity:1;" d="M 25.652344 15.667969 C 25.632812 15.695312 25.613281 15.933594 25.613281 16.203125 L 25.613281 16.691406 L 25.113281 16.71875 C 24.835938 16.734375 24.589844 16.761719 24.5625 16.78125 C 24.542969 16.800781 24.507812 17.027344 24.480469 17.277344 C 24.441406 17.71875 24.441406 17.726562 24.230469 17.738281 C 24.117188 17.738281 23.960938 17.753906 23.886719 17.757812 C 23.8125 17.765625 23.667969 17.777344 23.566406 17.785156 C 23.378906 17.792969 23.378906 17.800781 23.378906 18.269531 L 23.378906 18.742188 L 23.046875 18.742188 C 22.863281 18.742188 22.617188 18.765625 22.503906 18.785156 L 22.285156 18.832031 L 22.300781 19.28125 L 22.320312 19.726562 L 21.941406 19.75 L 21.554688 19.769531 L 21.515625 20.203125 C 21.460938 20.6875 21.445312 20.691406 20.957031 20.652344 L 20.667969 20.632812 L 20.667969 19.761719 L 19.65625 19.761719 L 19.636719 19.265625 L 19.617188 18.777344 L 18.65625 18.757812 L 17.683594 18.738281 L 17.683594 19.75 C 17.683594 20.664062 17.699219 20.761719 17.808594 20.761719 C 17.867188 20.753906 18.097656 20.761719 18.316406 20.765625 L 18.703125 20.78125 L 18.703125 21.800781 L 19.652344 21.800781 L 19.652344 22.816406 L 20.53125 22.816406 L 20.53125 23.082031 C 20.53125 23.394531 20.597656 23.4375 21.105469 23.394531 L 21.445312 23.375 L 21.464844 23.097656 L 21.488281 22.816406 L 22.359375 22.816406 L 22.359375 21.800781 L 23.371094 21.800781 L 23.464844 20.714844 L 24.386719 20.714844 L 24.40625 20.21875 L 24.425781 19.726562 L 25.472656 19.6875 L 25.511719 18.710938 L 26.527344 18.710938 L 26.546875 18.246094 L 26.570312 17.792969 L 27.78125 17.792969 L 27.78125 16.773438 L 27.105469 16.773438 L 27.105469 15.632812 L 26.398438 15.632812 C 26.011719 15.625 25.679688 15.648438 25.652344 15.667969 Z M 25.652344 15.667969 "/>
</g>
</svg>
